<svg width="16" height="16" viewBox="0 0 16 16" fill="none" xmlns="http://www.w3.org/2000/svg">
<path d="M12.5 5.01172V3.5H3.5V5.01172H12.5ZM12.5 7.26172V5.75H3.5V7.26172H12.5ZM12.5 9.51172V8H3.5V9.51172H12.5ZM15.4883 1.98828V15.4883L12.5 12.5H1.98828C1.58984 12.5 1.23828 12.3477 0.933594 12.043C0.652344 11.7383 0.511719 11.3867 0.511719 10.9883V1.98828C0.511719 1.58984 0.652344 1.25 0.933594 0.96875C1.23828 0.664062 1.58984 0.511719 1.98828 0.511719H14.0117C14.4102 0.511719 14.75 0.664062 15.0312 0.96875C15.3359 1.25 15.4883 1.58984 15.4883 1.98828Z" fill="#A6A6A6"/>
</svg>
