<svg width="14" height="16" viewBox="0 0 14 16" fill="none" xmlns="http://www.w3.org/2000/svg">
<path d="M12.2383 14.0117V5.75H1.76172V14.0117H12.2383ZM12.2383 1.98828C12.6367 1.98828 12.9883 2.14062 13.293 2.44531C13.5977 2.75 13.75 3.10156 13.75 3.5V14.0117C13.75 14.4102 13.5977 14.7617 13.293 15.0664C12.9883 15.3477 12.6367 15.4883 12.2383 15.4883H1.76172C1.33984 15.4883 0.976562 15.3477 0.671875 15.0664C0.390625 14.7852 0.25 14.4336 0.25 14.0117V3.5C0.25 3.10156 0.390625 2.75 0.671875 2.44531C0.976562 2.14062 1.33984 1.98828 1.76172 1.98828H2.5V0.511719H4.01172V1.98828H9.98828V0.511719H11.5V1.98828H12.2383ZM10.7617 7.26172V8.73828H9.25V7.26172H10.7617ZM7.73828 7.26172V8.73828H6.26172V7.26172H7.73828ZM4.75 7.26172V8.73828H3.23828V7.26172H4.75Z" fill="#A6A6A6"/>
</svg>
