<svg width="46" height="46" viewBox="0 0 46 46" fill="none" xmlns="http://www.w3.org/2000/svg">
<path d="M22.885 23H41.5725" stroke="black" stroke-width="2" stroke-linecap="round" stroke-linejoin="round"/>
<path d="M34.3994 35.9375V40.25H11.3994V5.75H34.3994V10.0625H37.2744V4.3125C37.2744 3.93125 37.123 3.56562 36.8534 3.29603C36.5838 3.02645 36.2182 2.875 35.8369 2.875H9.96191C9.58067 2.875 9.21503 3.02645 8.94545 3.29603C8.67586 3.56562 8.52441 3.93125 8.52441 4.3125V41.6875C8.52441 42.0687 8.67586 42.4344 8.94545 42.704C9.21503 42.9735 9.58067 43.125 9.96191 43.125H35.8369C36.2182 43.125 36.5838 42.9735 36.8534 42.704C37.123 42.4344 37.2744 42.0687 37.2744 41.6875V35.9375H34.3994Z" fill="black"/>
<path d="M41.5725 23L35.8225 28.75" stroke="black" stroke-width="2" stroke-linecap="round" stroke-linejoin="round"/>
<path d="M41.5725 23L35.8225 17.25" stroke="black" stroke-width="2" stroke-linecap="round" stroke-linejoin="round"/>
<path d="M35.8225 11.6294V8.75436" stroke="black" stroke-width="2" stroke-linecap="round" stroke-linejoin="round"/>
<path d="M35.8225 37.375V34.5" stroke="black" stroke-width="2" stroke-linecap="round" stroke-linejoin="round"/>
</svg>
