<svg width="92" height="92" viewBox="0 0 92 92" fill="none" xmlns="http://www.w3.org/2000/svg">
<path d="M74.75 22.9998V76.1873C74.75 78.5764 72.8266 80.4998 70.4375 80.4998H24.4376C22.0484 80.4998 20.125 78.5764 20.125 76.1873V12.9373C20.125 10.5482 22.0484 8.625 24.4376 8.625H60.375" fill="#518FF5"/>
<path d="M60.375 8.625V18.6873C60.375 21.0764 62.2983 22.9998 64.6875 22.9998H74.75L60.375 8.625Z" fill="#A6C5FA"/>
<path fill-rule="evenodd" clip-rule="evenodd" d="M31.6474 38.8104C31.4569 38.8077 31.2678 38.8429 31.0911 38.9139C30.9143 38.9849 30.7534 39.0904 30.6177 39.2241C30.4821 39.3579 30.3744 39.5173 30.3008 39.693C30.2273 39.8688 30.1895 40.0574 30.1895 40.2479C30.1895 40.4384 30.2273 40.627 30.3008 40.8027C30.3744 40.9785 30.4821 41.1378 30.6177 41.2716C30.7534 41.4053 30.9143 41.5108 31.0911 41.5818C31.2678 41.6529 31.4569 41.6881 31.6474 41.6854H50.6943H63.25C63.4404 41.6881 63.6296 41.6529 63.8063 41.5818C63.9831 41.5108 64.144 41.4053 64.2796 41.2716C64.4153 41.1378 64.523 40.9785 64.5965 40.8027C64.6701 40.627 64.7079 40.4384 64.7079 40.2479C64.7079 40.0574 64.6701 39.8688 64.5965 39.693C64.523 39.5173 64.4153 39.3579 64.2796 39.2241C64.144 39.0904 63.9831 38.9849 63.8063 38.9139C63.6296 38.8429 63.4404 38.8077 63.25 38.8104H50.6943H31.6474Z" fill="#F9F9F9"/>
<path fill-rule="evenodd" clip-rule="evenodd" d="M31.6474 44.5604C31.4569 44.5577 31.2678 44.5929 31.0911 44.6639C30.9143 44.7349 30.7534 44.8404 30.6177 44.9741C30.4821 45.1079 30.3744 45.2673 30.3008 45.443C30.2273 45.6188 30.1895 45.8074 30.1895 45.9979C30.1895 46.1884 30.2273 46.377 30.3008 46.5527C30.3744 46.7285 30.4821 46.8878 30.6177 47.0216C30.7534 47.1553 30.9143 47.2608 31.0911 47.3318C31.2678 47.4029 31.4569 47.4381 31.6474 47.4354H50.6943H63.25C63.4404 47.4381 63.6296 47.4029 63.8063 47.3318C63.9831 47.2608 64.144 47.1553 64.2796 47.0216C64.4153 46.8878 64.523 46.7285 64.5965 46.5527C64.6701 46.377 64.7079 46.1884 64.7079 45.9979C64.7079 45.8074 64.6701 45.6188 64.5965 45.443C64.523 45.2673 64.4153 45.1079 64.2796 44.9741C64.144 44.8404 63.9831 44.7349 63.8063 44.6639C63.6296 44.5929 63.4404 44.5577 63.25 44.5604H50.6943H31.6474Z" fill="#F9F9F9"/>
<path fill-rule="evenodd" clip-rule="evenodd" d="M31.6474 56.0604C31.4569 56.0577 31.2678 56.0929 31.0911 56.1639C30.9143 56.2349 30.7534 56.3404 30.6177 56.4741C30.4821 56.6079 30.3744 56.7673 30.3008 56.943C30.2273 57.1188 30.1895 57.3074 30.1895 57.4979C30.1895 57.6884 30.2273 57.877 30.3008 58.0527C30.3744 58.2285 30.4821 58.3878 30.6177 58.5216C30.7534 58.6553 30.9143 58.7608 31.0911 58.8318C31.2678 58.9029 31.4569 58.9381 31.6474 58.9354H44.2031H51.75C51.9405 58.9381 52.1296 58.9029 52.3063 58.8318C52.4831 58.7608 52.644 58.6553 52.7796 58.5216C52.9153 58.3878 53.023 58.2285 53.0966 58.0527C53.1701 57.877 53.2079 57.6884 53.2079 57.4979C53.2079 57.3074 53.1701 57.1188 53.0966 56.943C53.023 56.7673 52.9153 56.6079 52.7796 56.4741C52.644 56.3404 52.4831 56.2349 52.3063 56.1639C52.1296 56.0929 51.9405 56.0577 51.75 56.0604H44.2031H31.6474ZM57.5 56.0604C57.3095 56.0577 57.1204 56.0929 56.9436 56.1639C56.7668 56.2349 56.6059 56.3404 56.4703 56.4741C56.3346 56.6079 56.2269 56.7673 56.1534 56.943C56.0799 57.1188 56.042 57.3074 56.042 57.4979C56.042 57.6884 56.0799 57.877 56.1534 58.0527C56.2269 58.2285 56.3346 58.3878 56.4703 58.5216C56.6059 58.6553 56.7668 58.7608 56.9436 58.8318C57.1204 58.9029 57.3095 58.9381 57.5 58.9354C57.6905 58.9381 57.8796 58.9029 58.0563 58.8318C58.2331 58.7608 58.394 58.6553 58.5296 58.5216C58.6653 58.3878 58.773 58.2285 58.8466 58.0527C58.9201 57.877 58.9579 57.6884 58.9579 57.4979C58.9579 57.3074 58.9201 57.1188 58.8466 56.943C58.773 56.7673 58.6653 56.6079 58.5296 56.4741C58.394 56.3404 58.2331 56.2349 58.0563 56.1639C57.8796 56.0929 57.6905 56.0577 57.5 56.0604Z" fill="#F9F9F9"/>
<path fill-rule="evenodd" clip-rule="evenodd" d="M31.6474 50.3104C31.4569 50.3077 31.2678 50.3429 31.0911 50.4139C30.9143 50.4849 30.7534 50.5904 30.6177 50.7241C30.4821 50.8579 30.3744 51.0173 30.3008 51.193C30.2273 51.3688 30.1895 51.5574 30.1895 51.7479C30.1895 51.9384 30.2273 52.127 30.3008 52.3027C30.3744 52.4785 30.4821 52.6378 30.6177 52.7716C30.7534 52.9053 30.9143 53.0108 31.0911 53.0818C31.2678 53.1529 31.4569 53.1881 31.6474 53.1854H50.6943H63.25C63.4404 53.1881 63.6296 53.1529 63.8063 53.0818C63.9831 53.0108 64.144 52.9053 64.2796 52.7716C64.4153 52.6378 64.523 52.4785 64.5965 52.3027C64.6701 52.127 64.7079 51.9384 64.7079 51.7479C64.7079 51.5574 64.6701 51.3688 64.5965 51.193C64.523 51.0173 64.4153 50.8579 64.2796 50.7241C64.144 50.5904 63.9831 50.4849 63.8063 50.4139C63.6296 50.3429 63.4404 50.3077 63.25 50.3104H50.6943H31.6474Z" fill="#F9F9F9"/>
</svg>
