<svg width="67" height="67" viewBox="0 0 67 67" fill="none" xmlns="http://www.w3.org/2000/svg">
<path d="M10.8873 49.0068C12.1959 47.8422 15.3496 45.382 25.1248 40.9197C25.1902 40.8936 25.2557 40.8543 25.3211 40.8281L27.5064 39.8467C27.5457 39.8336 27.585 39.8074 27.6242 39.7943V42.4508L28.1215 46.7561C30.49 46.0756 33.5129 45.3559 33.5129 45.3559L38.7996 47.1748L39.3492 42.4377V39.7943C39.4146 39.8205 39.467 39.8467 39.5324 39.8729L40.5531 40.3309C41.2074 40.6188 41.8225 40.9066 42.4244 41.1814C43.6807 41.7572 44.8191 42.2938 45.8529 42.8041C52.6053 46.1148 54.9738 48.0123 56.0992 49.0068C56.5441 49.3994 56.9629 50.0275 57.3293 50.8127C60.1035 46.442 61.7131 41.26 61.7131 35.6984C61.7262 20.1 49.0852 7.45898 33.4998 7.45898C17.9145 7.45898 5.27344 20.1 5.27344 35.6984C5.27344 41.26 6.88301 46.442 9.65723 50.8127C10.0367 50.0275 10.4424 49.4125 10.8873 49.0068Z" fill="#00B8E9"/>
<path d="M27.6377 29.0639V42.4639C29.2473 44.3745 31.3803 45.3559 33.5002 45.3821V23.6333C30.5689 23.6333 27.6377 25.4391 27.6377 29.0639Z" fill="#DCC5A1"/>
<path d="M33.5 23.6333V45.369C35.633 45.3821 37.7529 44.4268 39.3625 42.4508V29.0639C39.3625 25.4391 36.4313 23.6333 33.5 23.6333Z" fill="#EDD9B4"/>
<path fill-rule="evenodd" clip-rule="evenodd" d="M39.3627 28.8153V37.3866C37.1381 38.9307 35.0051 39.7944 33.5002 39.7944C31.9953 39.7944 29.8492 38.9307 27.6377 37.3866V28.8153C27.6377 21.9059 39.3627 21.9059 39.3627 28.8153Z" fill="#BC9F82"/>
<path d="M26.7478 28.6844C26.7478 28.6844 32.4533 30.608 39.6244 28.6844C39.6244 28.6844 34.2853 35.1488 26.7478 28.6844Z" fill="white"/>
<path d="M26.7478 28.6844C26.7478 28.6844 32.7019 30.7519 39.6244 28.6844C35.4892 28.475 36.3529 28.2656 26.7478 28.6844Z" fill="#E5917A"/>
<path d="M26.7478 28.6844C26.7478 28.6844 33.1076 34.8478 39.6244 28.6844C39.6244 28.6844 38.2242 33.1467 33.5132 33.1597C28.8023 33.1859 26.7478 28.6844 26.7478 28.6844Z" fill="#E5917A"/>
<path d="M33.5003 5.01181C21.5397 5.01181 19.4591 13.7925 19.9563 21.1075C19.4329 20.6626 18.8702 20.4663 18.3729 20.6364C17.3391 20.9766 16.9727 22.704 17.5616 24.4837C18.1505 26.2764 19.4591 27.4411 20.4929 27.1009C20.6237 27.0616 20.7546 26.9831 20.8593 26.8915C21.3434 28.8675 21.893 30.2807 22.1679 30.6864C23.5811 32.7801 30.3073 38.3155 33.4872 38.3155L33.5003 5.01181Z" fill="#DCC5A1"/>
<path d="M48.5881 20.6364C48.1039 20.4794 47.5543 20.6495 47.057 21.0683C47.5412 13.7532 45.4475 5.01181 33.5 5.01181V38.3286C36.6799 38.3286 43.4061 32.7933 44.8193 30.6995C45.0941 30.2939 45.6307 28.8937 46.1148 26.9439C46.2195 27.0224 46.3242 27.0747 46.442 27.114C47.4758 27.4542 48.7975 26.2765 49.3732 24.4968C49.9752 22.704 49.6219 20.9767 48.5881 20.6364Z" fill="#EDD9B4"/>
<path fill-rule="evenodd" clip-rule="evenodd" d="M24.4968 12.9682C23.3583 19.2102 20.4925 18.6213 20.7149 25.9494C19.7989 20.2439 18.4249 12.641 22.2983 7.64218C25.3997 3.63789 35.6722 0.785152 42.3198 5.57461C49.661 7.14492 47.371 22.1021 46.3895 24.9287C45.696 20.3486 44.1649 18.4381 42.2151 13.0598C39.5849 14.9572 27.886 15.376 24.4968 12.9682Z" fill="#422F18"/>
<path d="M27.8598 20.7544C28.6187 20.7544 29.2469 21.461 29.2469 22.3247C29.2469 23.1883 28.6318 23.895 27.8598 23.895C27.1008 23.895 26.4727 23.1883 26.4727 22.3247C26.4727 21.4479 27.0877 20.7544 27.8598 20.7544Z" fill="#342214"/>
<path d="M39.0873 20.7544C39.8463 20.7544 40.4744 21.461 40.4744 22.3247C40.4744 23.1883 39.8594 23.895 39.0873 23.895C38.3283 23.895 37.7002 23.1883 37.7002 22.3247C37.7133 21.4479 38.3283 20.7544 39.0873 20.7544Z" fill="#342214"/>
<path d="M30.6211 30.6865C31.1184 31.7727 32.2045 32.5316 33.4738 32.5316C34.7432 32.5316 35.8424 31.7727 36.3266 30.6865H30.6211Z" fill="white"/>
<path d="M25.3213 40.8281L27.5066 39.8467C26.7607 40.1869 26.0279 40.5141 25.3213 40.8281Z" fill="#3E7EBC"/>
<path d="M39.5459 39.886L40.5666 40.344C40.2395 40.1869 39.8992 40.043 39.5459 39.886Z" fill="#3E7EBC"/>
<path d="M25.125 40.9197C25.1904 40.8936 25.2559 40.8543 25.3213 40.8281L25.125 40.9197Z" fill="#89BCE5"/>
<path d="M27.6373 39.7944L27.5195 39.8468C27.5588 39.8337 27.598 39.8075 27.6373 39.7944Z" fill="#89BCE5"/>
<path d="M42.4246 41.1684L40.5664 40.344C41.2207 40.6319 41.8357 40.9197 42.4377 41.1945L42.4246 41.1684Z" fill="#89BCE5"/>
<path d="M39.3623 39.8074C39.4277 39.8336 39.4801 39.8597 39.5455 39.8859L39.3623 39.8074Z" fill="#89BCE5"/>
<path d="M17.9406 59.2531C18.0977 58.023 18.2023 57.264 18.2023 57.264C18.2023 57.264 18.2023 58.0754 18.2023 59.4232C20.2568 60.758 22.5076 61.8179 24.8893 62.59L20.9766 54.6469L25.5828 51.5717L19.9559 48.9414L25.1248 40.9197C15.3496 45.382 12.1959 47.8422 10.8873 49.0068C10.4424 49.3994 10.0236 50.0275 9.65723 50.8127C11.7902 54.1758 14.6168 57.0547 17.9406 59.2531Z" fill="#3E7EBC"/>
<path d="M56.1123 49.0068C55 48.0123 52.6184 46.1148 45.866 42.8041C44.8322 42.2937 43.6938 41.7572 42.4375 41.1814L47.0176 48.9414L41.3906 51.5717L45.9969 54.6469L42.0842 62.6031C44.4789 61.8441 46.7297 60.7711 48.7973 59.4363C48.7973 58.0885 48.7973 57.2771 48.7973 57.2771C48.7973 57.2771 48.902 58.023 49.059 59.2662C52.3828 57.0677 55.2094 54.1888 57.3424 50.8258C56.9629 50.0275 56.5572 49.4125 56.1123 49.0068Z" fill="#3E7EBC"/>
<path d="M30.0977 63.7154L30.1107 63.8593C30.2285 63.8593 30.3332 63.8724 30.451 63.8724L30.4641 63.7677C30.3463 63.7546 30.2285 63.7416 30.0977 63.7154Z" fill="#E6E6E5"/>
<path d="M30.0978 63.7155C30.2156 63.7286 30.3464 63.7417 30.4642 63.7548L32.3878 50.2762L30.8175 48.104L33.5132 45.3559C33.5132 45.3559 30.4904 46.0757 28.1218 46.7561L30.0978 63.7155Z" fill="#E6E6E5"/>
<path d="M36.5361 63.7678L36.5492 63.8725C36.6539 63.8725 36.7586 63.8594 36.8633 63.8594L36.8764 63.7285C36.7586 63.7416 36.6408 63.7547 36.5361 63.7678Z" fill="#E6E6E5"/>
<path d="M33.5264 45.3689L36.1305 48.117L34.5863 50.2892L36.51 63.7677C36.6277 63.7547 36.7455 63.7416 36.8633 63.7285L38.8 47.1879L33.5264 45.3689Z" fill="#E6E6E5"/>
<path d="M28.1348 46.7691L27.6375 42.4638V39.8074C27.5982 39.8205 27.559 39.8467 27.5197 39.8597L25.3344 40.8412C25.2689 40.8674 25.2035 40.9066 25.1381 40.9328L19.9561 48.9414L25.583 51.5717L20.9768 54.6469L24.8895 62.59C25.9887 62.9433 27.1141 63.2312 28.2656 63.4406C28.8676 63.5584 29.4826 63.65 30.0977 63.7285L28.1348 46.7691Z" fill="#89BCE5"/>
<path d="M47.0176 48.9415L42.4375 41.1815C41.8355 40.9067 41.2205 40.6188 40.5662 40.3309L39.5455 39.8729C39.4801 39.8467 39.4277 39.8206 39.3623 39.7944V42.4378L38.8127 47.1749L36.876 63.7286C37.8182 63.6108 38.7473 63.4538 39.6633 63.2575C40.4877 63.0743 41.2859 62.8518 42.0842 62.6032L45.9969 54.6469L41.3906 51.5717L47.0176 48.9415Z" fill="#89BCE5"/>
<path d="M34.5992 50.2892L36.1434 48.117L33.5393 45.3689L30.8436 48.117L32.4139 50.2892L30.4902 63.7678C31.4848 63.8724 32.4924 63.9248 33.5131 63.9248C34.5338 63.9248 35.5414 63.8724 36.5359 63.7678L34.5992 50.2892Z" fill="#1B75BC"/>
<path d="M17.9407 59.2532C18.0323 59.3055 18.1108 59.371 18.2024 59.4233C18.2024 58.0755 18.2024 57.2641 18.2024 57.2641C18.2024 57.2641 18.0977 58.01 17.9407 59.2532Z" fill="#314E67"/>
<path d="M48.7976 59.4233C48.8892 59.371 48.9677 59.3055 49.0593 59.2532C48.9023 58.0231 48.7976 57.2641 48.7976 57.2641C48.7976 57.2641 48.8107 58.0755 48.7976 59.4233Z" fill="#314E67"/>
<path fill-rule="evenodd" clip-rule="evenodd" d="M27.6377 38.0278L27.1143 40.0169L28.5537 50.4071L33.5264 45.369L27.6377 38.0278Z" fill="white"/>
<path fill-rule="evenodd" clip-rule="evenodd" d="M39.3627 38.0278L39.7684 39.9907L38.4205 50.5118L33.5264 45.369L39.3627 38.0278Z" fill="white"/>
</svg>
