<svg width="67" height="67" viewBox="0 0 67 67" fill="none" xmlns="http://www.w3.org/2000/svg">
<path d="M10.8745 49.033C12.1831 47.8684 15.3368 45.4082 25.112 40.9459C25.1905 40.9066 25.2559 40.8805 25.3344 40.8412L27.4151 39.9121C27.4805 39.8859 27.559 39.8467 27.6245 39.8205V42.477L28.1217 46.7953C30.4903 46.1148 33.5262 45.3951 33.5262 45.3951L38.8129 47.2141L39.3625 42.477V39.8336C39.5458 39.9121 39.742 40.0037 39.9252 40.0822L40.3833 40.2916C41.103 40.6057 41.7834 40.9197 42.4377 41.2207C51.8596 45.5521 54.8301 47.8945 56.1125 49.0461C56.5575 49.4387 56.9631 50.0537 57.3295 50.8258C60.1038 46.4551 61.7133 41.273 61.7133 35.7115C61.7264 20.1 49.0854 7.45898 33.5 7.45898C17.9147 7.45898 5.27368 20.1 5.27368 35.6984C5.27368 41.26 6.88325 46.442 9.65747 50.8127C10.0239 50.0406 10.4295 49.4256 10.8745 49.033Z" fill="#746764"/>
<path d="M33.5263 45.3951C33.5263 45.3951 30.5035 46.1148 28.1218 46.7953L30.0847 63.7285C30.2156 63.7416 30.3334 63.7547 30.4642 63.7678L32.3878 50.3154H34.5994L36.523 63.7678C36.6408 63.7547 36.7585 63.7416 36.8763 63.7285L38.813 47.2141L33.5263 45.3951Z" fill="white"/>
<path d="M28.1346 46.7953C30.5032 46.1148 33.5391 45.3951 33.5391 45.3951L38.8258 47.2141L39.3754 42.4769V39.8336C39.2838 39.7943 39.1922 39.7551 39.1006 39.7158L28.0299 39.6373C27.8991 39.7027 27.7682 39.7551 27.6243 39.8205V42.4769L28.1346 46.7953Z" fill="#474648"/>
<path d="M27.6243 29.0769V38.0539V42.4769C29.2338 44.3875 31.3668 45.3689 33.4999 45.3951V23.6463C30.5686 23.6463 27.6243 25.4521 27.6243 29.0769Z" fill="#DCC5A1"/>
<path d="M33.5 23.6463V45.3951C35.633 45.4082 37.7529 44.4529 39.3756 42.4769V38.0539V29.0769C39.3756 25.4521 36.4312 23.6463 33.5 23.6463Z" fill="#EDD9B4"/>
<path d="M27.6243 35.5676V35.9863C27.6243 35.9863 30.6209 39.5457 33.4868 39.6766C36.3526 39.8074 39.3624 36.2349 39.3624 36.2349V35.5807" fill="#BC9F82"/>
<path fill-rule="evenodd" clip-rule="evenodd" d="M21.3038 20.6365C21.2907 20.6365 21.2776 20.6365 21.2645 20.6496C20.2307 20.9899 19.8643 22.7172 20.4532 24.4969C20.8065 25.583 21.4477 26.4467 22.1151 26.8785C22.6386 29.3648 23.2667 31.1838 23.5546 31.6418C24.8501 33.7356 30.5948 38.3418 33.513 38.3418V5.01193C23.0573 5.01193 20.9766 13.2953 21.3038 20.6365Z" fill="#DCC5A1"/>
<path fill-rule="evenodd" clip-rule="evenodd" d="M45.7221 20.6627C46.0493 13.3084 43.9686 5.01193 33.5129 5.01193V38.3418C36.4311 38.3418 42.1758 33.7356 43.4713 31.6418C43.7592 31.1707 44.4004 29.3387 44.9239 26.8131C45.5651 26.3682 46.1539 25.5307 46.4942 24.4969C47.083 22.7303 46.7297 21.0291 45.7221 20.6627Z" fill="#EDD9B4"/>
<path d="M41.6134 5.58772C35.5154 0.785181 26.0935 3.651 23.2539 7.6553C19.6945 12.6672 20.9508 20.2571 21.8013 25.9756V25.9494C21.8144 26.0018 21.8275 26.0672 21.8406 26.1326C21.8537 26.185 21.9584 26.3158 21.9715 26.342C21.9976 26.3944 22.2201 26.342 22.2986 26.3028C22.3248 26.2897 22.3379 26.2504 22.3379 26.2242C22.3771 25.7139 22.3379 24.7194 22.3379 24.7063C22.2724 23.9211 22.1023 23.1621 21.9845 22.3901C22.5603 18.7914 24.2484 18.0324 25.1252 13.6879C25.3084 13.4 25.5177 13.1121 25.7271 12.8373C25.9758 12.5233 26.2244 12.2223 26.5123 11.9475C26.6693 11.8559 26.8133 11.7512 26.9572 11.6465C30.2418 10.4426 33.631 11.8821 36.7193 13.1514C37.9101 13.6356 39.2318 14.2114 40.5404 14.1067C41.1031 14.0674 41.5218 13.701 41.5742 13.2299C43.0529 17.6791 44.283 19.7336 45.0027 22.992C44.898 23.5547 44.7933 24.1174 44.7541 24.7063C44.7541 24.7194 44.7279 25.7139 44.7541 26.2242C44.7541 26.2504 44.7671 26.2897 44.7933 26.3028C44.8718 26.342 45.0812 26.3944 45.1205 26.342C45.1336 26.3028 45.2382 26.1719 45.2513 26.1326C45.3037 25.9102 45.3168 25.727 45.3298 25.5176C45.3691 25.2297 45.4214 24.9287 45.4607 24.6147C46.3767 21.0815 48.1171 7.10569 41.6134 5.58772ZM32.3617 10.2987C32.257 10.2725 32.1654 10.2332 32.0607 10.2071C32.2177 10.2463 32.3617 10.2856 32.5187 10.3248C32.4664 10.3248 32.414 10.3117 32.3617 10.2987Z" fill="#231F20"/>
<g opacity="0.1">
<g opacity="0.1">
<path opacity="0.1" fill-rule="evenodd" clip-rule="evenodd" d="M32.4008 50.3154H34.5992L34.6123 50.3809H32.3877L32.4008 50.3154Z" fill="#010101"/>
</g>
</g>
<path d="M27.4672 20.0346C28.2786 20.0346 28.9459 20.7805 28.9459 21.7096C28.9459 22.6387 28.2786 23.3846 27.4672 23.3846C26.6559 23.3846 25.9885 22.6256 25.9885 21.7096C25.9885 20.7805 26.6428 20.0346 27.4672 20.0346Z" fill="#342214"/>
<path d="M39.4802 20.0346C40.2915 20.0346 40.9589 20.7805 40.9589 21.7096C40.9589 22.6387 40.2915 23.3846 39.4802 23.3846C38.6688 23.3846 38.0015 22.6256 38.0015 21.7096C38.0015 20.7805 38.6688 20.0346 39.4802 20.0346Z" fill="#342214"/>
<path d="M30.4248 30.6604C30.9482 31.825 32.126 32.6363 33.4738 32.6363C34.8348 32.6363 35.9994 31.825 36.5359 30.6604H30.4248Z" fill="white"/>
<path d="M39.925 40.0822L40.3831 40.2916C40.2391 40.2131 40.0821 40.1476 39.925 40.0822Z" fill="#474648"/>
<path d="M25.3342 40.8412L27.4149 39.9121C26.6952 40.2262 26.0016 40.5402 25.3342 40.8412Z" fill="#474648"/>
<path d="M27.6244 39.8205L27.415 39.9121C27.4936 39.8859 27.559 39.8467 27.6244 39.8205Z" fill="#231F20"/>
<path d="M25.125 40.9459C25.1904 40.9197 25.2689 40.8805 25.3475 40.8543L25.125 40.9459Z" fill="#231F20"/>
<path d="M39.3757 39.8336C39.5589 39.9121 39.7552 40.0037 39.9384 40.0822L39.3757 39.8336Z" fill="#231F20"/>
<path d="M42.4245 41.1945L40.3831 40.2916C41.1028 40.6057 41.7832 40.9197 42.4375 41.2207L42.4245 41.1945Z" fill="#231F20"/>
<path d="M24.8633 62.5769L20.9637 54.673L25.57 51.5978L19.943 48.9676L25.112 40.9328C15.3368 45.3951 12.1831 47.8683 10.8745 49.0199C10.4295 49.4125 10.0239 50.0275 9.65747 50.7996C13.1645 56.3219 18.5167 60.5355 24.8633 62.5769Z" fill="#474648"/>
<path d="M56.1257 49.033C54.8302 47.8945 51.8728 45.5391 42.4509 41.2076L47.031 48.9676L41.4041 51.5978L46.0103 54.673L42.1107 62.59C48.4574 60.5617 53.8357 56.335 57.3427 50.8127C56.9763 50.0406 56.5707 49.4256 56.1257 49.033Z" fill="#474648"/>
<path d="M27.6246 42.4769V39.8205C27.5591 39.8467 27.4806 39.8859 27.4152 39.9121L25.3345 40.8412C25.256 40.8805 25.1906 40.9066 25.1121 40.9459L19.9431 48.9807L25.5701 51.6109L20.9638 54.6861L24.8634 62.59C26.5384 63.1266 28.2919 63.5191 30.0978 63.7285L28.1349 46.7953L27.6246 42.4769Z" fill="#231F20"/>
<path d="M41.4041 51.5978L47.031 48.9676L42.4509 41.2076C41.7966 40.9066 41.1162 40.5926 40.3964 40.2785L39.9384 40.0691C39.7552 39.9906 39.572 39.899 39.3757 39.8205V42.4639L38.8261 47.201L36.8894 63.7285C38.6822 63.5191 40.4357 63.1266 42.1107 62.59L46.0103 54.673L41.4041 51.5978Z" fill="#231F20"/>
<path d="M34.5994 50.3154L36.065 48.0516L33.5394 45.3951L30.9091 48.0516L32.4009 50.3154L30.4773 63.7678C31.4718 63.8725 32.4794 63.9248 33.5001 63.9248C34.5209 63.9248 35.5285 63.8725 36.523 63.7678L34.5994 50.3154Z" fill="#30A7DF"/>
<path fill-rule="evenodd" clip-rule="evenodd" d="M27.6244 38.0408L27.114 40.043L28.5535 50.4332L33.5261 45.3951L27.6244 38.0408Z" fill="#E7E7E7"/>
<path fill-rule="evenodd" clip-rule="evenodd" d="M39.3755 38.0408L39.7812 40.0168L38.4203 50.5379L33.5261 45.3951L39.3755 38.0408Z" fill="#E7E7E7"/>
</svg>
