<svg width="92" height="92" viewBox="0 0 92 92" fill="none" xmlns="http://www.w3.org/2000/svg">
<path d="M71.875 22.9998V76.1873C71.875 78.5764 69.9516 80.4998 67.5625 80.4998H21.5626C19.1734 80.4998 17.25 78.5764 17.25 76.1873V12.9373C17.25 10.5482 19.1734 8.625 21.5626 8.625H57.5" fill="#7349BD"/>
<path d="M57.5 8.625V18.6873C57.5 21.0764 59.4233 22.9998 61.8125 22.9998H71.875L57.5 8.625Z" fill="#B7A2DD"/>
<path fill-rule="evenodd" clip-rule="evenodd" d="M28.7724 38.8104C28.5819 38.8077 28.3928 38.8429 28.2161 38.9139C28.0393 38.9849 27.8784 39.0904 27.7427 39.2241C27.6071 39.3579 27.4994 39.5173 27.4258 39.693C27.3523 39.8688 27.3145 40.0574 27.3145 40.2479C27.3145 40.4384 27.3523 40.627 27.4258 40.8027C27.4994 40.9785 27.6071 41.1378 27.7427 41.2716C27.8784 41.4053 28.0393 41.5108 28.2161 41.5818C28.3928 41.6529 28.5819 41.6881 28.7724 41.6854C28.9629 41.6881 29.152 41.6529 29.3288 41.5818C29.5056 41.5108 29.6665 41.4053 29.8021 41.2716C29.9378 41.1378 30.0455 40.9785 30.119 40.8027C30.1925 40.627 30.2304 40.4384 30.2304 40.2479C30.2304 40.0574 30.1925 39.8688 30.119 39.693C30.0455 39.5173 29.9378 39.3579 29.8021 39.2241C29.6665 39.0904 29.5056 38.9849 29.3288 38.9139C29.152 38.8429 28.9629 38.8077 28.7724 38.8104ZM34.5224 38.8104C34.3319 38.8077 34.1428 38.8429 33.9661 38.9139C33.7893 38.9849 33.6284 39.0904 33.4927 39.2241C33.3571 39.3579 33.2494 39.5173 33.1758 39.693C33.1023 39.8688 33.0645 40.0574 33.0645 40.2479C33.0645 40.4384 33.1023 40.627 33.1758 40.8027C33.2494 40.9785 33.3571 41.1378 33.4927 41.2716C33.6284 41.4053 33.7893 41.5108 33.9661 41.5818C34.1428 41.6529 34.3319 41.6881 34.5224 41.6854H47.8193H60.375C60.5655 41.6881 60.7546 41.6529 60.9313 41.5818C61.1081 41.5108 61.269 41.4053 61.4047 41.2716C61.5403 41.1378 61.648 40.9785 61.7216 40.8027C61.7951 40.627 61.8329 40.4384 61.8329 40.2479C61.8329 40.0574 61.7951 39.8688 61.7216 39.693C61.648 39.5173 61.5403 39.3579 61.4047 39.2241C61.269 39.0904 61.1081 38.9849 60.9313 38.9139C60.7546 38.8429 60.5655 38.8077 60.375 38.8104H47.8193H34.5224Z" fill="#F9F9F9"/>
<path fill-rule="evenodd" clip-rule="evenodd" d="M28.7724 44.5604C28.5819 44.5577 28.3928 44.5929 28.2161 44.6639C28.0393 44.7349 27.8784 44.8404 27.7427 44.9741C27.6071 45.1079 27.4994 45.2673 27.4258 45.443C27.3523 45.6188 27.3145 45.8074 27.3145 45.9979C27.3145 46.1884 27.3523 46.377 27.4258 46.5527C27.4994 46.7285 27.6071 46.8878 27.7427 47.0216C27.8784 47.1553 28.0393 47.2608 28.2161 47.3318C28.3928 47.4029 28.5819 47.4381 28.7724 47.4354C28.9629 47.4381 29.152 47.4029 29.3288 47.3318C29.5056 47.2608 29.6665 47.1553 29.8021 47.0216C29.9378 46.8878 30.0455 46.7285 30.119 46.5527C30.1925 46.377 30.2304 46.1884 30.2304 45.9979C30.2304 45.8074 30.1925 45.6188 30.119 45.443C30.0455 45.2673 29.9378 45.1079 29.8021 44.9741C29.6665 44.8404 29.5056 44.7349 29.3288 44.6639C29.152 44.5929 28.9629 44.5577 28.7724 44.5604ZM34.5224 44.5604C34.3319 44.5577 34.1428 44.5929 33.9661 44.6639C33.7893 44.7349 33.6284 44.8404 33.4927 44.9741C33.3571 45.1079 33.2494 45.2673 33.1758 45.443C33.1023 45.6188 33.0645 45.8074 33.0645 45.9979C33.0645 46.1884 33.1023 46.377 33.1758 46.5527C33.2494 46.7285 33.3571 46.8878 33.4927 47.0216C33.6284 47.1553 33.7893 47.2608 33.9661 47.3318C34.1428 47.4029 34.3319 47.4381 34.5224 47.4354H47.8193H60.375C60.5655 47.4381 60.7546 47.4029 60.9313 47.3318C61.1081 47.2608 61.269 47.1553 61.4047 47.0216C61.5403 46.8878 61.648 46.7285 61.7216 46.5527C61.7951 46.377 61.8329 46.1884 61.8329 45.9979C61.8329 45.8074 61.7951 45.6188 61.7216 45.443C61.648 45.2673 61.5403 45.1079 61.4047 44.9741C61.269 44.8404 61.1081 44.7349 60.9313 44.6639C60.7546 44.5929 60.5655 44.5577 60.375 44.5604H47.8193H34.5224Z" fill="#F9F9F9"/>
<path fill-rule="evenodd" clip-rule="evenodd" d="M28.7724 50.3104C28.5819 50.3077 28.3928 50.3429 28.2161 50.4139C28.0393 50.4849 27.8784 50.5904 27.7427 50.7241C27.6071 50.8579 27.4994 51.0173 27.4258 51.193C27.3523 51.3688 27.3145 51.5574 27.3145 51.7479C27.3145 51.9384 27.3523 52.127 27.4258 52.3027C27.4994 52.4785 27.6071 52.6378 27.7427 52.7716C27.8784 52.9053 28.0393 53.0108 28.2161 53.0818C28.3928 53.1529 28.5819 53.1881 28.7724 53.1854C28.9629 53.1881 29.152 53.1529 29.3288 53.0818C29.5056 53.0108 29.6665 52.9053 29.8021 52.7716C29.9378 52.6378 30.0455 52.4785 30.119 52.3027C30.1925 52.127 30.2304 51.9384 30.2304 51.7479C30.2304 51.5574 30.1925 51.3688 30.119 51.193C30.0455 51.0173 29.9378 50.8579 29.8021 50.7241C29.6665 50.5904 29.5056 50.4849 29.3288 50.4139C29.152 50.3429 28.9629 50.3077 28.7724 50.3104ZM34.5224 50.3104C34.3319 50.3077 34.1428 50.3429 33.9661 50.4139C33.7893 50.4849 33.6284 50.5904 33.4927 50.7241C33.3571 50.8579 33.2494 51.0173 33.1758 51.193C33.1023 51.3688 33.0645 51.5574 33.0645 51.7479C33.0645 51.9384 33.1023 52.127 33.1758 52.3027C33.2494 52.4785 33.3571 52.6378 33.4927 52.7716C33.6284 52.9053 33.7893 53.0108 33.9661 53.0818C34.1428 53.1529 34.3319 53.1881 34.5224 53.1854H47.8193H60.375C60.5655 53.1881 60.7546 53.1529 60.9313 53.0818C61.1081 53.0108 61.269 52.9053 61.4047 52.7716C61.5403 52.6378 61.648 52.4785 61.7216 52.3027C61.7951 52.127 61.8329 51.9384 61.8329 51.7479C61.8329 51.5574 61.7951 51.3688 61.7216 51.193C61.648 51.0173 61.5403 50.8579 61.4047 50.7241C61.269 50.5904 61.1081 50.4849 60.9313 50.4139C60.7546 50.3429 60.5655 50.3077 60.375 50.3104H47.8193H34.5224Z" fill="#F9F9F9"/>
</svg>
