<svg width="18" height="20" viewBox="0 0 18 20" fill="none" xmlns="http://www.w3.org/2000/svg">
<path d="M5.01562 13L9 9.01562L12.9844 13L11.5781 14.4531L9.98438 12.8594V16.9844H8.01562V12.8594L6.42188 14.4062L5.01562 13ZM15 18.0156V7H9.98438V1.98438H3V18.0156H15ZM11.0156 0.015625L17.0156 6.01562V18.0156C17.0156 18.5469 16.8125 19.0156 16.4062 19.4219C16 19.7969 15.5312 19.9844 15 19.9844H3C2.46875 19.9844 2 19.7969 1.59375 19.4219C1.1875 19.0156 0.984375 18.5469 0.984375 18.0156L1.03125 1.98438C1.03125 1.45313 1.21875 1 1.59375 0.625C2 0.21875 2.46875 0.015625 3 0.015625H11.0156Z" fill="white"/>
</svg>
